<svg width="771" height="222" viewBox="0 0 771 222" fill="none" xmlns="http://www.w3.org/2000/svg">
<g clip-path="url(#clip0_612_43)">
<path d="M220.46 142.705V116.821H235.227V120.34H224.341V127.905H234.866V131.391H224.341V139.186H235.556V142.705H220.46Z" fill="white" style="fill:white;fill-opacity:1;"/>
<mask id="mask0_612_43" style="mask-type:luminance" maskUnits="userSpaceOnUse" x="0" y="0" width="771" height="222">
<path d="M771 0H0V222H771V0Z" fill="white" style="fill:white;fill-opacity:1;"/>
</mask>
<g mask="url(#mask0_612_43)">
<path d="M243.351 125.34H243.449C244.962 123.432 247.166 122.314 249.37 122.314C253.119 122.314 256.145 124.879 256.145 130.339V142.606H252.198V130.306C252.198 127.379 250.685 125.471 248.284 125.471C246.574 125.471 245.193 126.26 243.318 128.365V142.606H239.371V122.741H243.318V125.34H243.351Z" fill="white" style="fill:white;fill-opacity:1;"/>
<path d="M258.315 122.741H262.624L267.985 134.943L273.182 122.741H277.391L268.643 143.001H267.327L258.315 122.741Z" fill="white" style="fill:white;fill-opacity:1;"/>
<path d="M284.397 142.606H280.45V122.741H284.397V142.606ZM282.456 119.058C281.174 119.058 280.121 118.005 280.121 116.723C280.121 115.44 281.174 114.388 282.456 114.388C283.739 114.388 284.791 115.44 284.791 116.723C284.791 118.005 283.739 119.058 282.456 119.058Z" fill="white" style="fill:white;fill-opacity:1;"/>
<path d="M294.263 122.741V127.28H294.362C296.368 123.794 298.243 122.314 300.118 122.314C301.729 122.314 303.209 123.07 304.854 124.616L302.782 128.036C301.598 126.885 300.052 126.096 299.131 126.096C296.434 126.096 294.296 128.793 294.296 132.213V142.606H290.35V122.741H294.296H294.263Z" fill="white" style="fill:white;fill-opacity:1;"/>
<path d="M309.327 132.476C309.327 136.686 311.925 139.482 315.74 139.482C319.917 139.482 322.516 136.818 322.516 132.542C322.516 128.694 319.687 125.899 315.74 125.899C312.024 125.899 309.327 128.694 309.327 132.509M326.561 132.476C326.561 138.758 322.154 143.034 315.806 143.034C309.459 143.034 305.314 138.594 305.314 132.476C305.314 126.754 309.886 122.347 315.806 122.347C322.055 122.347 326.561 126.589 326.561 132.476Z" fill="white" style="fill:white;fill-opacity:1;"/>
<path d="M334.783 125.34H334.882C336.395 123.432 338.599 122.314 340.802 122.314C344.584 122.314 347.577 124.879 347.577 130.339V142.606H343.631V130.306C343.631 127.379 342.118 125.471 339.717 125.471C338.007 125.471 336.625 126.26 334.75 128.365V142.606H330.804V122.741H334.75V125.34H334.783Z" fill="white" style="fill:white;fill-opacity:1;"/>
<path d="M356.853 122.741V125.34C358.892 123.3 360.799 122.314 362.641 122.314C365.174 122.314 367.246 123.563 368.561 125.899C370.272 123.958 372.377 122.314 375.205 122.314C379.218 122.314 381.816 125.405 381.816 130.108V142.573H377.869V130.273C377.869 127.28 375.994 125.636 373.758 125.636C372.475 125.603 370.732 126.688 369.318 128.168V142.606H365.371V130.273C365.371 127.05 363.727 125.668 361.786 125.668C359.846 125.668 358.464 126.293 356.82 128.201V142.639H352.873V122.774H356.82L356.853 122.741Z" fill="white" style="fill:white;fill-opacity:1;"/>
<path d="M400.267 130.635C400.135 127.609 398.425 125.734 395.629 125.734C392.636 125.734 390.795 127.51 390.268 130.635H400.267ZM403.819 140.633C401.418 142.244 399.247 143.001 395.893 143.001C389.709 143.001 386.256 137.903 386.256 132.411C386.256 126.392 390.071 122.314 395.531 122.314C400.99 122.314 404.148 125.899 404.148 133.233H390.17C390.795 137.179 393.064 139.219 396.846 139.219C399.247 139.219 401.484 138.331 403.819 136.851V140.666V140.633Z" fill="white" style="fill:white;fill-opacity:1;"/>
<path d="M412.272 125.34H412.371C413.884 123.432 416.087 122.314 418.324 122.314C422.073 122.314 425.066 124.879 425.066 130.339V142.606H421.119V130.306C421.119 127.379 419.606 125.471 417.238 125.471C415.495 125.471 414.147 126.26 412.272 128.365V142.606H408.325V122.741H412.272V125.34Z" fill="white" style="fill:white;fill-opacity:1;"/>
<path d="M435.163 122.741H441.444V126.26H435.163V136.456C435.163 138.824 436.84 139.482 437.991 139.482C439.405 139.482 440.885 138.988 442.464 138.002V141.685C441.083 142.442 438.978 143.001 437.662 143.001C433.354 143.001 431.183 140.337 431.183 136.752V126.26H427.729V125.833L435.13 118.63V122.741H435.163Z" fill="white" style="fill:white;fill-opacity:1;"/>
<path d="M471.078 131.621L467.099 122.676L463.415 131.621H471.111H471.078ZM476.176 142.705L472.657 135.075H461.836L458.679 142.639L454.699 142.705L465.783 116.756L468.48 116.69L480.09 142.705H476.176Z" fill="white" style="fill:white;fill-opacity:1;"/>
<path d="M489.168 126.129C486.997 126.129 485.221 127.773 485.221 129.714C485.221 131.884 486.8 133.332 489.201 133.332C491.405 133.332 493.016 131.786 493.016 129.615C493.016 127.708 491.24 126.129 489.168 126.129ZM488.149 143.56C485.484 143.56 483.643 144.81 483.643 146.586C483.643 148.592 485.583 149.644 489.168 149.644C492.753 149.644 494.661 148.592 494.661 146.783C494.661 144.251 490.582 143.593 488.149 143.593M498.575 125.767H494.496C496.042 127.313 496.568 128.431 496.568 130.108C496.568 131.786 495.647 133.628 494.726 134.581C492.062 137.41 486.669 135.996 486.669 138.331C486.669 139.449 488.741 140.107 492.753 140.896C496.996 141.751 498.509 143.922 498.509 146.454C498.509 150.401 495.022 152.769 489.135 152.769C483.774 152.769 479.959 150.236 479.959 146.75C479.959 143.823 481.505 142.08 484.958 141.258C483.577 140.403 482.985 139.613 482.985 138.725C482.985 137.443 484.235 136.357 486.142 135.897V135.798C484.695 135.173 483.577 134.318 482.82 133.266C482.097 132.246 481.735 130.996 481.735 129.549C481.735 125.307 485.057 122.708 490.418 122.708H498.607V125.767H498.575Z" fill="white" style="fill:white;fill-opacity:1;"/>
<path d="M514.657 130.635C514.526 127.609 512.783 125.734 509.987 125.734C506.994 125.734 505.152 127.51 504.626 130.635H514.625H514.657ZM518.21 140.633C515.809 142.244 513.638 143.001 510.283 143.001C504.1 143.001 500.646 137.903 500.646 132.411C500.646 126.392 504.462 122.314 509.921 122.314C515.381 122.314 518.571 125.899 518.571 133.233H504.593C505.218 137.179 507.488 139.219 511.27 139.219C513.671 139.219 515.907 138.331 518.21 136.851V140.666V140.633Z" fill="white" style="fill:white;fill-opacity:1;"/>
<path d="M526.662 125.34H526.76C528.24 123.432 530.477 122.314 532.68 122.314C536.43 122.314 539.456 124.879 539.456 130.339V142.606H535.509V130.306C535.509 127.379 533.996 125.471 531.628 125.471C529.885 125.471 528.503 126.26 526.662 128.365V142.606H522.715V122.741H526.662V125.34Z" fill="white" style="fill:white;fill-opacity:1;"/>
<path d="M559.585 127.905C557.315 126.392 555.835 125.964 554.092 125.964C550.507 125.964 548.041 128.661 548.041 132.707C548.041 136.752 550.705 139.284 554.75 139.284C556.46 139.284 558.039 138.824 560.012 137.936V141.85C558.664 142.475 556.164 143.001 554.092 143.001C548.172 143.001 543.995 138.89 543.995 133.036C543.995 126.491 547.81 122.314 553.829 122.314C556.131 122.314 557.677 122.84 559.585 123.695V127.905Z" fill="white" style="fill:white;fill-opacity:1;"/>
<path d="M566.853 152.769H562.479L569.254 138.364L561.558 122.741H566.031L571.359 133.924L576.522 122.741H580.93L566.853 152.769Z" fill="white" style="fill:white;fill-opacity:1;"/>
<path d="M616.549 133.463H623.259L619.773 125.668L616.549 133.463ZM630.56 142.606H627.403L624.509 136.259H615.333L612.603 142.606H609.445L618.687 120.932H620.858L630.495 142.606H630.56Z" fill="white" style="fill:white;fill-opacity:1;"/>
<path d="M636.02 139.811H639.901C643.519 139.811 644.506 138.002 644.506 136.39C644.506 134.417 642.993 133.036 639.737 133.036H636.02V139.778V139.811ZM636.02 130.273H638.059C641.118 130.273 642.598 129.122 642.598 126.82C642.598 125.208 641.677 123.827 638.849 123.827H636.02V130.273ZM632.929 121.064H639.211C643.848 121.064 645.854 123.86 645.854 126.556C645.854 128.793 644.802 130.24 642.565 131.161V131.227C645.789 131.819 647.762 133.956 647.762 136.851C647.762 139.515 645.756 142.606 640.362 142.606H632.962V121.064H632.929Z" fill="white" style="fill:white;fill-opacity:1;"/>
<path d="M668.812 134.121C668.812 139.383 665.654 142.869 659.241 142.869C654.702 142.869 650.262 140.304 650.262 134.45V121.064H653.353V133.792C653.353 136.226 653.682 137.245 654.669 138.232C655.919 139.449 657.465 140.074 659.306 140.074C661.674 140.074 663.385 139.317 664.371 138.331C665.49 137.212 665.753 135.634 665.753 133.628V121.097H668.844V134.187L668.812 134.121Z" fill="white" style="fill:white;fill-opacity:1;"/>
<path d="M684.993 139.811H689.926C696.932 139.811 698.544 134.483 698.544 131.819C698.544 127.51 695.781 123.827 689.762 123.827H684.993V139.811ZM681.901 121.064H690.255C698.215 121.064 701.734 126.754 701.734 131.819C701.734 137.344 697.425 142.606 690.321 142.606H681.901V121.064Z" fill="white" style="fill:white;fill-opacity:1;"/>
<path d="M723.803 142.606H720.678V133.233H708.64V142.606H705.549V121.064H708.64V130.437H720.678V121.064H723.803V142.606Z" fill="white" style="fill:white;fill-opacity:1;"/>
<path d="M733.242 133.463H739.952L736.466 125.668L733.242 133.463ZM747.253 142.606H744.096L741.235 136.259H732.091L729.361 142.606H726.204L735.446 120.932H737.65L747.253 142.606Z" fill="white" style="fill:white;fill-opacity:1;"/>
<path d="M752.713 139.811H756.594C760.244 139.811 761.198 138.002 761.198 136.39C761.198 134.417 759.685 133.036 756.429 133.036H752.68V139.778L752.713 139.811ZM752.713 130.273H754.752C757.811 130.273 759.291 129.122 759.291 126.82C759.291 125.208 758.37 123.827 755.541 123.827H752.713V130.273ZM749.621 121.064H755.87C760.508 121.064 762.514 123.86 762.514 126.556C762.514 128.793 761.461 130.24 759.225 131.161V131.227C762.448 131.819 764.389 133.956 764.389 136.851C764.389 139.515 762.415 142.606 756.988 142.606H749.621V121.064Z" fill="white" style="fill:white;fill-opacity:1;"/>
<path d="M770.507 121.064H767.415V142.606H770.507V121.064Z" fill="white" style="fill:white;fill-opacity:1;"/>
<path d="M601.617 130.339H589.941V133.134H601.617V130.339Z" fill="white" style="fill:white;fill-opacity:1;"/>
<path d="M417.797 68.08L418.751 66.0737H420.362C420.033 65.3502 419.869 64.528 419.869 63.5742C419.869 60.384 421.974 59.2657 423.816 59.2657C425.164 59.2657 426.381 59.8577 427.302 60.9431L427.466 61.1404L426.151 62.6533L425.954 62.456C425.098 61.6995 424.375 61.272 423.816 61.272C422.665 61.272 421.974 62.1271 421.974 63.5742C421.974 65.2515 422.566 66.0737 423.816 66.0737H427.795L426.776 68.08H417.797Z" fill="white" style="fill:white;fill-opacity:1;"/>
<path d="M355.307 98.3378C359.945 98.3378 362.214 95.5751 362.214 89.8525C362.214 84.1298 359.945 81.3671 355.537 81.3671C351.13 81.3671 342.184 88.6356 338.994 98.3378H355.34H355.307ZM315.215 101.002C312.32 101.002 309.558 100.245 307.058 98.7983C305.775 100.245 303.934 100.969 301.434 101.002H301.072H254.204C250.882 101.002 247.659 100.311 246.574 95.5751L245.028 88.5369C243.811 83.1431 242.726 81.8276 239.568 81.8276H238.154L242.496 99.752L242.068 99.8507C238.779 100.607 233.977 100.969 230.655 100.969C223.485 100.969 219.999 97.4827 219.999 90.2472V79.7227H222.926V89.8525C222.926 95.7725 225.294 98.272 230.853 98.272C233.648 98.272 236.773 98.0089 239.075 97.5485C235.819 84.2614 235.457 83.2089 235.293 82.7156C235.227 82.4854 235.194 82.3867 235.03 81.6631L234.405 79.1965H238.253C243.548 79.1965 246.212 81.3343 247.429 86.6294L249.304 94.8516C249.994 98.3049 252.658 98.3049 254.073 98.3049H300.941C304.723 98.3049 306.334 96.1671 306.334 91.2009V79.6569H309.163V91.9903C309.163 93.6347 308.9 95.0489 308.374 96.4303C310.413 97.68 312.616 98.3049 314.886 98.3049H336.363V71.04H339.191V90.6747C345.144 80.808 352.873 78.6045 355.472 78.6045C361.589 78.6045 365.24 82.7814 365.24 89.8196C365.24 93.6676 364.286 96.5618 362.411 98.4694C361.918 98.9627 361.359 99.3903 360.8 99.7191C360.043 100.18 358.399 100.969 355.932 100.969H315.149L315.215 101.002Z" fill="white" style="fill:white;fill-opacity:1;"/>
<path d="M379.283 85.248C376.323 85.248 373.33 87.2871 373.33 91.8586C373.33 95.9698 375.402 98.3706 379.053 98.3706H382.769V85.9058L382.375 85.7742C381.289 85.4453 380.632 85.2809 379.283 85.2809M374.119 111.066L372.903 108.435H373.593C373.988 108.468 374.35 108.468 374.711 108.468C379.941 108.468 382.408 106.165 382.704 100.969H378.856C374.843 100.969 370.567 98.568 370.567 91.8258C370.567 85.0835 375.04 82.6497 379.217 82.6497C381.618 82.6497 383 82.9129 385.302 83.5378L385.631 83.6364V98.3049H407.371C411.252 98.3049 412.831 96.2329 412.831 91.2009V79.6569H415.725V91.9902C415.725 97.8444 413.094 100.87 407.897 100.969H407.47H385.631C385.401 107.744 381.914 111.033 375.007 111.033H374.152L374.119 111.066Z" fill="white" style="fill:white;fill-opacity:1;"/>
<path d="M424.836 71.04H421.941V101.002H424.836V71.04Z" fill="white" style="fill:white;fill-opacity:1;"/>
<path d="M663.516 74.7894L664.371 73.112H666.147L666.016 72.8818C665.687 72.224 665.523 71.3689 665.523 70.448C665.523 67.4222 667.562 66.3369 669.338 66.3369C670.719 66.3369 671.903 66.9289 672.791 68.08L671.64 69.3627C670.785 68.5076 669.93 68.0142 669.305 68.0142C668.088 68.0142 667.331 68.9351 667.331 70.448C667.331 72.2569 667.989 73.1449 669.305 73.1449H673.087L672.166 74.8222H663.483L663.516 74.7894Z" fill="white" style="fill:white;fill-opacity:1;"/>
<path d="M518.571 74.7894L519.426 73.112H521.202L521.071 72.8818C520.742 72.224 520.578 71.3689 520.578 70.448C520.578 67.4222 522.617 66.3369 524.393 66.3369C525.741 66.3369 526.958 66.9289 527.846 68.08L526.728 69.3627C525.873 68.5076 525.018 68.0142 524.393 68.0142C523.176 68.0142 522.419 68.9351 522.419 70.448C522.419 72.2569 523.077 73.1449 524.393 73.1449H528.175L527.287 74.8222H518.604L518.571 74.7894Z" fill="white" style="fill:white;fill-opacity:1;"/>
<path d="M234.733 105.343H232.431V109.98H234.733V105.343Z" fill="white" style="fill:white;fill-opacity:1;"/>
<path d="M409.115 105.343H406.812V109.816H409.115V105.343Z" fill="white" style="fill:white;fill-opacity:1;"/>
<path d="M302.551 105.343H300.249V109.816H302.551V105.343Z" fill="white" style="fill:white;fill-opacity:1;"/>
<path d="M230.852 105.343H228.55V109.98H230.852V105.343Z" fill="white" style="fill:white;fill-opacity:1;"/>
<path d="M359.352 70.9742H357.05V75.6116H359.352V70.9742Z" fill="white" style="fill:white;fill-opacity:1;"/>
<path d="M472.131 71.1387H469.829V75.8418H472.131V71.1387Z" fill="white" style="fill:white;fill-opacity:1;"/>
<path d="M476.44 71.1387H474.138V75.8418H476.44V71.1387Z" fill="white" style="fill:white;fill-opacity:1;"/>
<path d="M637.237 71.1387H634.935V75.8418H637.237V71.1387Z" fill="white" style="fill:white;fill-opacity:1;"/>
<path d="M641.545 71.1387H639.243V75.8418H641.545V71.1387Z" fill="white" style="fill:white;fill-opacity:1;"/>
<path d="M469.73 82.5182C466.671 82.5182 465.718 83.8996 465.718 88.4382C465.718 93.5689 467.198 93.9307 469.434 93.9307C470.618 93.9307 471.967 93.7662 473.216 93.4045V82.8142C471.967 82.4854 471.013 82.4854 469.73 82.4854M574.813 101.035C571.951 101.035 569.221 100.344 566.755 98.9298C565.406 100.245 563.597 100.936 561.229 101.002H561.065H553.467C550.606 101.002 547.876 100.311 545.376 98.8969C544.028 100.212 542.219 100.903 539.851 100.969H539.686H532.089C529.228 100.969 526.498 100.278 523.998 98.864C522.682 100.18 520.874 100.87 518.473 100.936H518.308H473.249V97.1538C471.999 97.4827 470.651 97.68 469.434 97.68C464.106 97.68 461.902 94.9831 461.902 88.3725C461.902 81.7618 464.402 78.6374 469.763 78.6374C472.624 78.6374 474.236 79.032 476.538 79.6569L476.933 79.7556V97.384H517.848C521.367 97.384 522.814 95.4765 522.814 90.7405V79.7885H526.531V91.5627C526.531 93.1414 526.3 94.4898 525.873 95.8054C527.747 96.8907 529.754 97.4169 531.859 97.4169H539.226C542.745 97.4169 544.192 95.5094 544.192 90.7734V79.8214H547.909V91.5956C547.909 93.1742 547.712 94.5227 547.251 95.8382C549.126 96.9236 551.132 97.4498 553.237 97.4498H560.637C564.156 97.4498 565.604 95.5422 565.604 90.8062V79.8542H569.32V91.6285C569.32 93.2071 569.123 94.5556 568.662 95.8711C570.537 96.9565 572.543 97.4827 574.648 97.4827H590.468C594.053 97.4827 595.467 95.608 595.467 90.8391V71.2045H599.25V91.6285C599.25 97.6143 596.618 100.772 591.389 101.035H590.961H574.878H574.813Z" fill="white" style="fill:white;fill-opacity:1;"/>
<path d="M608.294 71.1715H604.545V101.035H608.294V71.1715Z" fill="white" style="fill:white;fill-opacity:1;"/>
<path d="M634.935 82.5182C631.448 82.5182 629.771 84.4586 629.771 88.4382C629.771 93.2728 632.106 93.9306 634.639 93.9306C635.823 93.9306 637.171 93.7662 638.421 93.4044V82.8142C637.171 82.4853 636.217 82.4853 634.935 82.4853M758.139 97.4497V95.6737C758.139 92.4506 757.317 91.1022 755.344 91.1022C752.91 91.1022 752.417 92.7795 752.417 95.6737V97.4497H758.139ZM706.963 101.035C704.102 101.035 701.372 100.344 698.905 98.9297C697.557 100.245 695.748 100.936 693.38 101.002H693.215H677.132C674.271 101.002 671.541 100.311 669.041 98.8968C667.693 100.212 665.884 100.903 663.516 100.969H663.351H638.421V97.1866C637.171 97.5155 635.823 97.7128 634.606 97.7128C628.85 97.7128 625.923 94.5555 625.923 88.4053C625.923 82.2551 629.212 78.6702 634.935 78.6702C637.796 78.6702 639.408 79.0648 641.71 79.6897L642.105 79.7884V97.4168H662.792C666.344 97.4168 667.791 95.5093 667.791 90.7733V79.8213H671.508V91.5955C671.508 93.1742 671.311 94.5226 670.85 95.8382C672.725 96.9235 674.731 97.4497 676.836 97.4497H692.689C696.241 97.4497 697.688 95.5422 697.688 90.8062V79.8542H701.405V91.6284C701.405 93.2071 701.174 94.5555 700.747 95.8711C702.622 96.9564 704.628 97.4826 706.733 97.4826H748.799V95.7066C748.799 88.5697 752.91 87.5173 755.344 87.5173C757.778 87.5173 761.856 88.5697 761.856 95.7066V97.4826H767.217V91.8257C767.217 85.9386 763.402 81.6631 758.139 81.6631C756.265 81.6631 754.226 81.7946 752.088 82.8142L751.463 83.0773L750.608 79.5911L751.068 79.4266C753.272 78.5386 755.804 78.0453 758.205 78.0453C764.586 78.0453 770.999 82.1893 770.999 91.4968V101.068H706.996L706.963 101.035Z" fill="white" style="fill:white;fill-opacity:1;"/>
<path d="M693.742 105.606H691.439V110.309H693.742V105.606Z" fill="white" style="fill:white;fill-opacity:1;"/>
<path d="M698.084 105.606H695.781V110.309H698.084V105.606Z" fill="white" style="fill:white;fill-opacity:1;"/>
<path d="M538.404 105.606H536.102V110.309H538.404V105.606Z" fill="white" style="fill:white;fill-opacity:1;"/>
<path d="M542.712 105.606H540.41V110.309H542.712V105.606Z" fill="white" style="fill:white;fill-opacity:1;"/>
<path d="M562.315 105.606H560.013V110.309H562.315V105.606Z" fill="white" style="fill:white;fill-opacity:1;"/>
<path d="M449.832 88.5698H438.156V91.3654H449.832V88.5698Z" fill="white" style="fill:white;fill-opacity:1;"/>
<path d="M96.8927 57.1609C89.4596 57.1609 82.2239 58.6738 75.35 61.6667C62.1612 67.4222 51.9983 78.0124 46.7688 91.4311C41.5394 104.85 41.8354 119.518 47.5911 132.74C56.2082 152.44 75.6131 165.168 97.0901 165.168C104.523 165.168 111.759 163.655 118.6 160.662C131.756 154.907 141.919 144.349 147.148 130.898C152.411 117.446 152.115 102.778 146.359 89.5893C137.775 69.8889 118.337 57.1938 96.8598 57.1938M97.0901 165.892C75.35 165.892 55.6491 152.999 46.9333 133.036C41.0789 119.65 40.7829 104.784 46.0782 91.2009C51.3734 77.5849 61.6679 66.896 75.054 61.0418C81.9937 58.016 89.361 56.4702 96.8598 56.4702C118.6 56.4702 138.301 69.3627 147.017 89.2933C159.087 116.953 146.49 149.25 118.896 161.32C111.956 164.346 104.622 165.892 97.0901 165.892Z" fill="white" style="fill:white;fill-opacity:1;"/>
<path d="M96.8924 56.9965C89.4265 56.9965 82.1908 58.5094 75.2839 61.5351C62.0623 67.3236 51.8665 77.9138 46.6041 91.3654C41.3418 104.817 41.6378 119.551 47.4264 132.805C56.0435 152.572 75.547 165.332 97.0898 165.332C104.523 165.332 111.791 163.82 118.665 160.794C145.997 148.855 158.462 116.887 146.523 89.4907C137.906 69.7574 118.402 56.9965 96.8924 56.9965ZM97.0898 165.727C75.4155 165.727 55.7803 152.868 47.0975 132.97C41.2431 119.617 40.9471 104.817 46.2752 91.2338C51.5705 77.6836 61.832 66.9947 75.1524 61.1734C82.0921 58.1476 89.3936 56.6018 96.8924 56.6018C118.567 56.6018 138.202 69.4614 146.885 89.3263C158.922 116.887 146.359 149.085 118.83 161.123C111.89 164.148 104.589 165.694 97.0898 165.694" fill="white" style="fill:white;fill-opacity:1;"/>
<path d="M96.531 68.08C97.8795 68.08 99.228 68.1786 100.544 68.4089C101.695 65.3173 103.01 62.5218 104.49 60.088C101.892 59.5289 99.228 59.2329 96.5639 59.2329H96.3337C94.6234 59.2329 92.9461 59.3644 91.2687 59.6275C92.3211 62.0942 93.2421 64.9884 93.9985 68.2115C94.8537 68.1129 95.7088 68.08 96.531 68.08ZM79.4613 63.4426C82.0267 65.1858 84.3947 67.4222 86.6641 70.2506C88.7033 69.2969 90.9069 68.6391 93.2092 68.3102C92.4527 65.0871 91.5318 62.2258 90.4793 59.7591C86.5655 60.4169 82.8489 61.6338 79.4613 63.4426ZM101.333 68.5733C103.734 69.0666 106.003 69.9218 108.042 71.1058C110.608 68.5733 113.305 66.4684 116.1 64.8569C112.844 62.752 109.226 61.2391 105.313 60.2853C103.8 62.6862 102.484 65.4818 101.333 68.5733ZM69.8575 71.1058C73.2122 71.928 76.5999 73.1778 80.2506 74.9209C81.8622 73.1778 83.7698 71.7306 85.9734 70.6124C83.6712 67.784 81.3031 65.5475 78.7377 63.8702C75.3172 65.7778 72.3571 68.2115 69.8904 71.1058M108.733 71.5333C110.542 72.6844 112.154 74.0658 113.469 75.6444C117.153 74.0986 120.804 73.0133 124.323 72.4213C122.284 69.7244 119.751 67.3235 116.824 65.3502C114.061 66.9289 111.331 69.0009 108.733 71.5333ZM96.3666 79.3938C96.7613 79.3938 97.123 79.3938 97.4848 79.4924C98.2084 75.776 99.1622 72.2898 100.28 69.1653C98.9978 68.968 97.7479 68.8693 96.531 68.8693C95.7746 68.8693 94.9852 68.9022 94.1959 69.0009C94.9194 72.1582 95.4786 75.6444 95.9061 79.4595H96.3995L96.3666 79.3938ZM87.1575 70.8755C89.2295 73.5724 90.9727 76.4338 92.5514 78.9662L93.2421 80.0844C93.8341 79.8213 94.459 79.624 95.1497 79.5253C94.7221 75.7431 94.1301 72.224 93.4394 69.0666C91.2358 69.3626 89.1637 69.9875 87.1904 70.8755M98.2742 79.6569C98.9977 79.8213 99.6555 80.1173 100.28 80.4791C102.616 77.1244 105.017 74.1644 107.45 71.6978C105.477 70.5795 103.306 69.7902 101.037 69.3298C99.8858 72.52 98.9649 76.0062 98.2413 79.6569M69.1997 80.1502C71.5349 80.1502 73.9358 80.3146 76.567 80.6435C77.2906 78.8018 78.343 77.0586 79.6586 75.5129C75.975 73.7698 72.5873 72.52 69.2655 71.7635C67.1605 74.3946 65.5489 77.2889 64.4965 80.3804C66.0094 80.216 67.5881 80.1502 69.1668 80.1502M80.9742 75.2826C84.8881 77.256 88.5388 79.5253 91.3345 81.3013C91.6962 80.9724 92.0909 80.6764 92.5185 80.4462L91.762 79.1964C90.1504 76.5653 88.4402 73.8026 86.4339 71.2373C84.329 72.2898 82.4871 73.6711 80.9742 75.2826ZM100.938 80.9066C101.366 81.2355 101.728 81.5644 102.056 81.9591C105.543 79.5582 109.128 77.552 112.713 75.9733C111.43 74.4604 109.884 73.1778 108.174 72.0924C105.74 74.5591 103.306 77.4862 100.938 80.8738M122.349 81.696C124.685 81.696 126.954 81.8275 129.092 82.1235C128.27 78.9333 126.855 75.9404 124.849 73.1449C121.33 73.704 117.679 74.7564 113.963 76.3022C115.311 78.0453 116.298 79.92 116.923 81.9591C118.797 81.7946 120.606 81.7289 122.349 81.7289M77.3892 80.7751C80.9742 81.2684 84.3618 81.992 87.3877 82.6498L89.8873 83.176C90.1175 82.7155 90.4135 82.2551 90.7753 81.8604C86.7628 79.2622 83.5396 77.4204 80.4151 75.8746C79.0995 77.3875 78.0799 79.032 77.3892 80.7751ZM102.517 82.584C102.846 83.1102 103.109 83.6693 103.273 84.2613C107.779 83.176 112.088 82.4195 116.133 82.0249C115.508 80.0844 114.555 78.2755 113.239 76.5982C109.621 78.1769 106.036 80.1831 102.517 82.584ZM129.914 82.2551C134.025 82.9129 137.775 84.1626 141.064 85.9715C140.011 81.4986 138.071 77.0258 135.571 73.3093L135.505 73.2106C133.828 72.8818 132.052 72.7173 130.21 72.7173C128.763 72.7173 127.25 72.816 125.704 73.0133C127.678 75.8746 129.092 78.9991 129.914 82.2551ZM103.438 85.9715C108.371 86.1689 112.779 86.728 116.824 87.616C116.824 87.3529 116.824 87.0898 116.824 86.8266C116.824 85.4782 116.66 84.1298 116.298 82.7813C112.219 83.176 107.878 83.9324 103.372 85.0178L103.438 85.7084V85.9715ZM77.0932 81.5315C76.5012 83.2418 76.1723 85.0178 76.1723 86.8266C76.1723 87.1884 76.1723 87.5831 76.2381 87.9449C80.7111 86.8266 85.3485 86.0044 89.2953 85.3138C89.3282 84.8533 89.4269 84.36 89.5913 83.8995L87.2561 83.4062C84.3618 82.7813 80.8098 82.0249 77.1261 81.5315M91.4002 82.3209C91.0385 82.7155 90.7424 83.176 90.5451 83.6364L90.4464 83.8338C90.2491 84.3271 90.1175 84.9191 90.0846 85.5111V85.7413C90.0846 86.3004 90.1833 86.8924 90.3807 87.4515L90.4793 87.6489C90.7424 88.2738 91.1371 88.8986 91.6634 89.392L91.8278 89.5235C92.7816 90.4115 94.0314 91.0035 95.4128 91.2009H95.643L96.4324 91.2666C98.0768 91.2666 99.6555 90.7075 100.84 89.6551L101.004 89.4906C101.925 88.6355 102.484 87.5502 102.649 86.3662V86.136L102.714 85.6755C102.714 84.656 102.385 83.6364 101.728 82.7484L101.596 82.5511C100.708 81.4329 99.3924 80.6106 97.8466 80.3146L97.6164 80.2489C97.2217 80.1831 96.7941 80.1502 96.3666 80.1502H95.6759C94.0314 80.3804 92.6172 81.0382 91.5976 82.0578L91.4331 82.3538L91.3673 82.288L91.4002 82.3209ZM117.58 87.7804C122.053 88.8329 126 90.28 129.684 92.2533C129.848 91.0035 129.914 89.7866 129.914 88.5698C129.914 86.6622 129.684 84.7875 129.256 82.9458C127.086 82.6169 124.75 82.4524 122.317 82.4524C120.639 82.4524 118.896 82.5182 117.087 82.6826C117.416 84.0311 117.613 85.4124 117.613 86.7938C117.613 87.1226 117.613 87.4515 117.58 87.7804ZM64.2662 81.2026C63.5098 83.7351 63.1151 86.3662 63.1151 88.9973C63.1151 90.0826 63.2138 91.2009 63.3782 92.3191C66.9303 90.6746 70.8771 89.3262 75.4816 88.1422C75.4487 87.7146 75.4158 87.2871 75.4158 86.8266C75.4158 84.9849 75.7119 83.176 76.3039 81.4329C73.7714 81.104 71.4691 80.9724 69.2326 80.9724C67.5552 80.9724 65.8778 81.0711 64.2662 81.2355M76.3039 88.7013C76.5012 90.3129 76.9288 91.8915 77.5866 93.3715C81.4347 91.1022 85.4472 89.096 89.5255 87.4515C89.394 86.9911 89.2953 86.5306 89.2624 86.0702C85.5459 86.6951 80.8098 87.5502 76.3039 88.6684M103.01 87.9778C107.056 89.6222 111.101 91.76 114.982 94.3253C115.969 92.4506 116.561 90.4444 116.758 88.3724C112.713 87.4844 108.338 86.9253 103.372 86.728C103.306 87.1555 103.175 87.5831 103.01 87.9778ZM77.9484 94.0951C78.7377 95.6738 79.7902 97.1209 81.0729 98.4364C84.0658 95.3778 87.3548 92.4178 90.8411 89.688C90.4464 89.2275 90.0846 88.7342 89.8215 88.1751C86.9601 89.3262 82.6516 91.2666 77.9484 94.0622M101.728 89.8524C105.444 93.0755 108.634 96.0684 111.397 99.0284C112.68 97.8115 113.732 96.4631 114.587 95.016C110.706 92.4506 106.694 90.3129 102.649 88.6684C102.385 89.096 102.089 89.4906 101.76 89.8524M52.8535 84.2942C52.0642 87.4515 51.6366 90.6418 51.6366 93.2729C51.6366 95.2791 51.8339 97.3511 52.2286 99.3902C55.3203 96.7262 58.7079 94.5226 62.6218 92.648C62.4573 91.4311 62.3586 90.2142 62.3258 88.9973C62.3258 86.432 62.6547 83.8338 63.4111 81.3013C59.6946 81.7946 56.2412 82.7813 52.8535 84.2613M130.407 92.6809C134.256 94.8186 137.742 97.5484 141.031 100.969C141.656 98.4364 141.952 95.8382 141.952 93.2729C141.952 91.2995 141.721 89.1618 141.294 87.024C138.038 85.1164 134.288 83.8009 130.079 83.1102C130.473 84.9191 130.671 86.7938 130.671 88.6026C130.671 89.9182 130.572 91.2995 130.375 92.6809M63.5098 93.1084C64.0031 96.0026 64.9569 98.7982 66.3712 101.429C69.6273 98.6338 73.1793 96.0684 76.9617 93.7991C76.2381 92.2204 75.7776 90.576 75.5803 88.8986C70.9757 90.0826 67.029 91.464 63.5427 93.1084M81.632 98.9955C82.9147 100.245 84.4276 101.298 86.0392 102.153C87.7824 98.864 89.9202 95.0818 92.354 90.9378C92.0251 90.7404 91.6962 90.5102 91.4002 90.2471C87.881 92.944 84.5921 95.904 81.5991 98.9955M100.017 91.168C102.517 95.2462 104.655 99.0613 106.431 102.482C108.042 101.692 109.522 100.706 110.838 99.5546C108.042 96.5946 104.885 93.5689 101.168 90.4115C100.807 90.7075 100.445 90.9378 100.017 91.168ZM115.64 94.7858C119.225 97.1866 122.645 99.9493 125.836 102.942C127.743 99.8506 129.026 96.5289 129.585 93.0755C125.967 91.1022 122.021 89.6222 117.548 88.5698C117.317 90.7404 116.692 92.8124 115.64 94.7858ZM86.7299 102.548C88.4731 103.403 90.3478 104.028 92.2883 104.389C93.0447 100.278 93.9327 96.1013 94.9194 91.9244C94.2616 91.8258 93.6367 91.5955 93.0118 91.3324C90.6109 95.3778 88.4731 99.16 86.697 102.548M97.8466 91.9244C98.636 95.9698 99.3924 100.311 100.017 104.488C101.991 104.192 103.898 103.633 105.707 102.811C103.898 99.2915 101.76 95.5093 99.2938 91.4969C98.8333 91.6942 98.34 91.8258 97.8137 91.9244M93.0776 104.488C94.2616 104.652 95.4128 104.751 96.531 104.751C97.419 104.751 98.3071 104.685 99.2609 104.587C98.636 100.344 97.8795 96.0026 97.0902 92.0231C96.8599 92.0231 96.6297 92.0231 96.3995 92.0231H95.7417C94.6892 96.3315 93.8341 100.443 93.0776 104.455M66.733 102.12C68.213 104.685 70.0877 107.02 72.3242 109.125C74.7252 105.606 77.4879 102.219 80.5137 99.0284C79.1982 97.6471 78.0799 96.1342 77.2577 94.5226C73.4754 96.8249 69.9562 99.3573 66.7001 102.153M111.923 99.6204C115.015 102.975 117.646 106.33 119.981 109.783L120.277 109.52C122.251 107.744 123.961 105.771 125.375 103.633C122.152 100.607 118.732 97.8444 115.245 95.4764C114.357 96.9893 113.239 98.3706 111.923 99.6204ZM52.426 100.278C53.2811 104.093 54.794 107.777 56.9318 111.197C59.4643 107.941 62.4244 104.85 65.7134 101.956C64.2662 99.2586 63.2467 96.4302 62.7204 93.4702C58.8394 95.3449 55.4518 97.5813 52.3931 100.278M126.395 103.501C129.651 106.626 132.578 109.98 135.144 113.467C137.808 109.882 139.715 105.968 140.801 101.89C137.544 98.4693 134.124 95.7066 130.276 93.536C129.651 97.0551 128.335 100.41 126.395 103.534M72.9162 109.652C75.0541 111.559 77.4879 113.204 80.1848 114.552C81.6649 110.934 83.4738 107.119 85.6774 102.876C84.0001 101.988 82.4542 100.87 81.1058 99.5875C78.047 102.778 75.3172 106.165 72.9491 109.652M106.76 103.205C108.799 107.284 110.509 111.132 111.923 114.98C114.62 113.73 117.12 112.151 119.356 110.309C117.054 106.823 114.423 103.501 111.331 100.147C109.95 101.331 108.404 102.383 106.76 103.205ZM80.8755 114.881C83.7698 116.262 86.9272 117.216 90.1833 117.775C90.7096 113.598 91.3673 109.454 92.1238 105.113C90.0846 104.718 88.1442 104.093 86.3352 103.205C84.1645 107.349 82.3556 111.164 80.8426 114.848M100.116 105.277C100.675 109.356 101.201 113.631 101.629 117.972C104.984 117.512 108.24 116.624 111.233 115.276C109.786 111.362 108.075 107.514 106.069 103.501C104.194 104.356 102.188 104.948 100.149 105.244M90.9727 117.907C92.8474 118.17 94.6892 118.301 96.4652 118.301H96.6955C98.0439 118.301 99.4582 118.203 100.84 118.038C100.412 113.5 99.9187 109.356 99.3267 105.343C98.4057 105.442 97.4519 105.508 96.4981 105.508C95.347 105.508 94.163 105.409 92.9132 105.244C92.1238 109.52 91.466 113.763 90.9727 117.874M57.3923 111.888C59.5959 115.243 62.3915 118.268 65.7134 120.932C67.4565 117.052 69.5286 113.269 71.8967 109.75C69.5944 107.612 67.6539 105.244 66.141 102.613C62.8849 105.475 59.9248 108.566 57.3923 111.855M44.6311 109.224C45.5849 113.631 47.4596 117.94 50.1895 122.018C51.9326 118.433 54.0376 115.045 56.4385 111.888C54.2349 108.468 52.6562 104.784 51.7682 100.903C49.137 103.304 46.736 106.1 44.6311 109.224ZM120.409 110.441C122.81 114.124 124.849 118.038 126.494 122.051C129.618 119.748 132.381 117.052 134.683 114.092C132.151 110.638 129.223 107.284 126 104.159C124.553 106.297 122.843 108.303 120.837 110.079L120.442 110.441H120.409ZM135.637 114.124C138.301 117.808 140.439 121.557 142.017 125.208C145.208 121.228 147.477 116.953 148.826 112.447C146.458 108.632 144.024 105.376 141.425 102.548C140.241 106.626 138.301 110.54 135.604 114.124M66.3383 121.459C69.2326 123.695 72.4558 125.603 75.9421 127.148C76.9288 123.235 78.2115 119.321 79.856 115.243C77.1261 113.894 74.6265 112.217 72.4558 110.276C70.1206 113.796 68.0486 117.545 66.3054 121.426M112.219 115.703C113.699 119.748 114.851 123.761 115.739 127.938C119.389 126.491 122.777 124.682 125.836 122.511C124.257 118.532 122.218 114.651 119.817 110.934C117.515 112.842 114.982 114.453 112.219 115.703ZM76.6985 127.477C80.5466 129.122 84.6579 130.273 88.9006 130.898C89.1966 126.688 89.6242 122.544 90.1175 118.564C86.7628 118.005 83.5725 116.986 80.6124 115.604C79.0008 119.617 77.7181 123.498 76.6985 127.477ZM101.695 118.762C102.056 122.708 102.385 126.885 102.616 131.194C106.891 130.733 111.068 129.747 114.982 128.267C114.094 124.09 112.943 120.11 111.496 116.065C108.404 117.413 105.115 118.334 101.695 118.795M89.69 131.029C92.0909 131.358 94.4919 131.523 96.827 131.523C98.4386 131.523 100.149 131.457 101.859 131.292C101.596 126.885 101.3 122.807 100.938 118.893C99.4911 119.058 98.1097 119.156 96.7284 119.156H96.4981C94.6563 119.156 92.8145 119.025 90.9069 118.729C90.3807 122.873 89.986 127.017 89.69 131.062M50.7157 122.741C53.5442 126.721 57.1292 130.339 61.4048 133.529C62.4244 129.451 63.7729 125.471 65.4174 121.656C62.0626 118.992 59.2012 115.9 56.9318 112.513C54.5309 115.703 52.4588 119.156 50.7486 122.708M126.79 122.807C128.368 126.82 129.585 131.128 130.407 135.634C134.683 132.871 138.4 129.582 141.491 125.866C139.945 122.215 137.84 118.466 135.176 114.749C132.874 117.709 130.046 120.439 126.822 122.807M62.0626 134.022C65.5489 136.555 69.4628 138.725 73.6398 140.468C74.0674 136.094 74.7581 131.983 75.7776 127.905C72.2256 126.359 68.9695 124.419 66.0423 122.182C64.4307 125.964 63.0822 129.944 62.0955 134.022M115.903 128.727C116.791 133.003 117.35 137.278 117.679 141.817C121.889 140.37 125.934 138.429 129.684 136.094C128.894 131.654 127.743 127.444 126.132 123.268C123.007 125.471 119.587 127.313 115.903 128.727ZM47.5912 130.799C50.321 135.404 54.4322 139.876 59.5301 143.757C59.8919 140.567 60.451 137.443 61.1746 134.384C56.899 131.227 53.2482 127.609 50.321 123.564C49.2357 125.899 48.3476 128.332 47.5912 130.799ZM74.3963 140.797C78.8364 142.573 83.5067 143.856 88.2757 144.547C88.3744 140.172 88.5717 135.831 88.8348 131.654C84.5263 131.029 80.3822 129.845 76.4683 128.201C75.4816 132.312 74.7909 136.423 74.3634 140.764M102.681 131.95C102.912 136.094 103.109 140.37 103.241 144.941C107.911 144.481 112.515 143.527 116.89 142.08C116.594 137.607 116.002 133.2 115.147 129.023C111.167 130.503 106.957 131.49 102.681 131.95ZM89.0651 144.678C91.8278 145.04 94.5905 145.237 97.2875 145.237C98.932 145.237 100.675 145.172 102.451 145.007C102.287 140.074 102.122 135.963 101.892 132.016C100.149 132.18 98.4715 132.279 96.7941 132.279C94.4261 132.279 91.9922 132.115 89.5913 131.786C89.2953 135.897 89.098 140.238 89.0322 144.678M130.539 136.456C131.098 139.876 131.46 143.363 131.591 146.849C136.656 143.494 140.833 139.515 143.991 135.075C143.728 132.641 143.004 129.747 141.787 126.688C138.663 130.372 134.88 133.66 130.539 136.456ZM60.2537 144.284C64.1676 147.145 68.4761 149.612 73.1465 151.618C73.1465 148 73.2451 144.612 73.5411 141.291C69.3313 139.548 65.4174 137.41 61.8653 134.844C61.1417 137.87 60.6155 141.028 60.2537 144.284ZM117.712 142.639C117.942 146.125 117.975 149.809 117.876 153.558C122.514 151.98 126.855 149.875 130.835 147.342C130.703 143.79 130.375 140.271 129.848 136.916C126.099 139.252 122.053 141.159 117.745 142.639M73.9358 151.947C78.6061 153.887 83.4409 155.268 88.2757 156.058C88.2099 152.506 88.177 148.888 88.2757 145.336C83.5067 144.645 78.8035 143.396 74.3305 141.587C74.0345 144.908 73.9358 148.296 73.9687 151.947M103.273 145.731C103.372 149.348 103.438 152.999 103.504 156.65C108.108 156.222 112.68 155.268 117.087 153.854C117.219 150.072 117.153 146.487 116.956 142.902C112.548 144.349 107.977 145.303 103.273 145.764M89.0651 156.222C92.058 156.683 95.0181 156.913 97.8795 156.913C99.3924 156.913 100.971 156.847 102.714 156.716C102.649 153.065 102.583 149.447 102.484 145.829C100.774 145.961 99.0306 146.027 97.2875 146.027C94.5576 146.027 91.7949 145.829 89.0322 145.468C88.9664 148.789 88.9664 152.308 89.0322 156.222M102.846 165.365C102.846 162.734 102.78 160.103 102.747 157.472C101.004 157.604 99.4253 157.669 97.9124 157.669C95.051 157.669 92.058 157.439 89.098 156.979C89.1637 159.577 89.2624 162.175 89.3611 164.806V165.069L88.6046 165.135V164.839C88.4731 162.142 88.3744 159.478 88.3086 156.847C83.4409 156.058 78.639 154.676 73.9687 152.769C74.0016 155.301 74.1332 157.9 74.2976 160.498V160.761L73.5411 160.827V160.564C73.3438 157.834 73.2122 155.104 73.1793 152.44C68.509 150.467 64.1347 148.033 60.1879 145.172C60.0235 146.849 59.8919 148.526 59.8261 150.138V150.434L59.0368 150.368V150.105C59.1355 148.395 59.267 146.553 59.4643 144.645C54.3336 140.83 50.1566 136.39 47.3281 131.786L47.1965 132.18L46.44 131.95L46.7689 130.865C45.3547 128.431 44.3351 125.964 43.6773 123.531L43.6115 123.268L44.368 123.07L44.4338 123.333C44.9929 125.471 45.8809 127.675 47.0649 129.845C47.8214 127.412 48.7423 125.044 49.7948 122.807C46.9992 118.795 45.0587 114.519 44.0062 110.079C43.6773 110.572 43.3484 111.132 43.0195 111.658L42.8879 111.888L42.1973 111.46L42.3288 111.23C42.7893 110.474 43.2497 109.75 43.7431 109.027C43.3155 106.856 43.0853 104.685 43.0853 102.548V102.284H43.7431L43.6773 102.646C43.6773 104.521 44.0391 106.297 44.368 108.139C46.5058 105.047 48.8739 102.383 51.5379 99.9822C51.0775 97.7458 50.8473 95.4764 50.8473 93.24C50.8473 90.7075 51.2419 87.6818 51.9326 84.6889C50.8801 85.1822 49.8277 85.7413 48.8081 86.3333L48.5779 86.4649L48.1832 85.7742L48.4134 85.6426C49.5974 84.952 50.8473 84.2942 52.1957 83.7022C52.8864 80.9395 53.8402 78.3742 54.8927 76.2693L55.3202 75.7102L55.7807 76.0062C54.8598 77.8809 53.8402 80.7093 53.1166 83.3404C56.5043 81.8933 59.9577 80.9724 63.6742 80.512C64.6938 77.3218 66.3054 74.3289 68.4432 71.5991C65.8778 71.0729 63.444 70.8098 61.0102 70.8098H60.747L60.8786 70.1849L61.0102 70.0533C63.6084 70.0533 66.3054 70.3493 68.9695 70.9413C71.4362 67.9813 74.462 65.4489 77.9155 63.4426C76.8301 62.7849 75.7776 62.2586 74.6923 61.7982L74.4292 61.6995L74.8896 61.3378L75.2514 61.2062C76.5012 61.7324 77.455 62.2586 78.6719 63.048C82.1911 61.1404 86.0392 59.8249 90.1175 59.1013C89.8544 58.5422 89.5913 57.9831 89.3282 57.4569L89.1966 57.1938L90.0189 57.0951C90.3478 57.6871 90.6438 58.312 90.9398 58.9698C92.7158 58.7066 94.5248 58.5751 96.3337 58.5751H96.5639C99.3924 58.5751 102.221 58.8711 104.951 59.496C105.411 58.8053 105.872 58.1146 106.365 57.4569L106.529 57.2266L107.154 57.6871L106.99 57.9173C106.562 58.4764 106.168 59.0684 105.773 59.6604C109.786 60.6471 113.502 62.2915 116.89 64.4951C118.501 63.6071 120.146 62.8506 121.79 62.2915L122.053 62.1929L122.317 62.9493L122.053 63.048C120.573 63.5742 119.06 64.232 117.613 65.0213C120.573 67.0933 123.139 69.56 125.211 72.3884C126.921 72.1582 128.598 72.0266 130.21 72.0266C132.118 72.0266 133.992 72.1911 135.736 72.5529L135.999 72.6186V72.8489L136.097 72.7502L136.262 72.9804C138.959 76.9929 140.998 81.8275 142.05 86.5964C144.221 87.912 146.194 89.4578 147.938 91.2338L148.135 91.4311L147.576 91.9902L147.378 91.7929C145.833 90.2142 144.09 88.8329 142.248 87.6489C142.609 89.6222 142.774 91.5298 142.774 93.3715C142.774 96.1671 142.412 98.9955 141.689 101.725C144.287 104.521 146.754 107.744 149.122 111.493C149.812 108.862 150.207 106.198 150.24 103.567V103.271H151.029V103.534C150.996 106.461 150.536 109.421 149.681 112.348C150.273 113.335 150.865 114.322 151.457 115.341L151.588 115.572L150.898 115.966L150.766 115.736C150.306 114.914 149.812 114.124 149.352 113.335C147.905 117.808 145.57 122.084 142.313 126.03C143.497 128.924 144.254 131.687 144.583 134.22C146.523 131.325 148.003 128.332 148.957 125.241L149.056 124.978L149.812 125.208L149.714 125.471C148.628 128.892 146.918 132.279 144.649 135.469C144.78 136.127 144.78 136.916 144.78 137.607V137.903L143.991 137.87V137.607C143.991 137.212 143.991 136.818 143.991 136.39C140.735 140.699 136.591 144.547 131.591 147.803C131.657 149.644 131.624 151.519 131.591 153.361V153.657L130.802 153.591V153.328C130.868 151.684 130.868 150.039 130.835 148.296C126.855 150.796 122.481 152.868 117.844 154.446C117.745 157.012 117.646 158.952 117.416 161.616V161.813L116.561 162.241C116.791 159.577 116.956 157.11 117.054 154.742C112.713 156.124 108.141 157.044 103.504 157.472C103.537 160.136 103.569 162.767 103.602 165.431L103.767 165.365L102.616 165.497L102.846 165.431V165.365Z" fill="white" style="fill:white;fill-opacity:1;"/>
<path d="M144.221 135.239C140.932 139.876 136.492 143.988 131.328 147.375C131.197 143.494 130.835 139.811 130.243 136.357C134.749 133.463 138.695 130.043 141.886 126.195C143.201 129.385 143.991 132.476 144.221 135.272M117.58 153.953C117.712 149.908 117.679 146.092 117.416 142.442C121.955 140.896 126.164 138.89 130.013 136.456C130.605 139.942 130.966 143.593 131.098 147.507C126.987 150.171 122.448 152.341 117.58 153.953ZM103.24 156.946C103.175 153.098 103.109 149.283 102.977 145.468C107.944 145.007 112.713 144.02 117.218 142.508C117.449 146.191 117.514 150.006 117.383 154.052C112.877 155.532 108.108 156.551 103.24 156.946ZM97.8794 157.176C94.8535 157.176 91.7948 156.913 88.7689 156.452C88.7031 152.637 88.6702 148.855 88.7689 145.139C91.5645 145.533 94.3931 145.764 97.2873 145.764C99.1292 145.764 100.938 145.665 102.747 145.533C102.879 149.316 102.944 153.164 103.01 156.979C101.333 157.11 99.6225 157.209 97.9122 157.209M73.6725 152.144C73.6397 148.296 73.7712 144.711 74.0672 141.225C78.606 143.067 83.4737 144.415 88.5387 145.139C88.4729 148.855 88.4729 152.604 88.5387 156.452C83.4408 155.63 78.3758 154.15 73.6397 152.177M59.9576 144.415C60.3522 140.995 60.9114 137.64 61.6678 134.384C65.3186 137.048 69.4298 139.317 73.837 141.126C73.5081 144.612 73.3765 148.23 73.4094 152.045C68.5418 150.006 63.9701 147.408 59.9576 144.415ZM47.295 130.832C48.1173 128.069 49.1368 125.471 50.288 123.004C53.2481 127.181 57.0633 130.996 61.5034 134.252C60.714 137.508 60.1549 140.83 59.7602 144.251C54.4979 140.337 50.1893 135.765 47.295 130.832ZM44.3349 109.158C46.6701 105.705 49.2026 102.811 51.9325 100.344C52.8205 104.455 54.465 108.336 56.7673 111.855C54.3005 115.045 52.0969 118.63 50.2222 122.544C47.3279 118.4 45.3216 113.861 44.3021 109.158M51.3733 93.2728C51.3733 90.5102 51.8338 87.2213 52.6232 84.0968C56.4055 82.4195 60.1549 81.4657 63.8056 81.0053C63.0163 83.5706 62.6216 86.2346 62.6216 89.0302C62.6216 90.3128 62.7532 91.5955 62.9176 92.8453C59.0366 94.6871 55.3859 96.9893 52.064 99.9493C51.6036 97.7786 51.3733 95.5751 51.3733 93.3057M69.1996 71.4675C72.9819 72.3226 76.6326 73.7368 80.1518 75.4471C78.7047 77.0915 77.5535 78.9662 76.7971 80.9724C72.7845 80.4462 68.5418 80.2488 64.1674 80.7422C65.2528 77.3875 66.9631 74.2631 69.2324 71.4675M78.7047 63.5413C81.7634 65.5146 84.2301 68.0142 86.368 70.7111C84.0328 71.8622 81.9608 73.4408 80.2834 75.2826C76.7642 73.5724 73.1134 72.1582 69.3311 71.2702C71.8636 68.2115 75.0539 65.5804 78.7047 63.5413ZM90.6765 59.4631C91.8934 62.2586 92.8472 65.416 93.5708 68.5404C91.0712 68.8693 88.736 69.5928 86.5982 70.6124C84.4604 67.9155 81.9936 65.416 78.9349 63.4426C82.4541 61.5022 86.4337 60.1537 90.6765 59.496M96.3335 58.9697H96.5638C99.4581 58.9697 102.254 59.2986 104.918 59.9235C103.175 62.6862 101.793 65.7119 100.708 68.7377C99.3594 68.4746 97.9451 68.3431 96.498 68.3431C95.5771 68.3431 94.6562 68.4088 93.7682 68.5075C93.0446 65.3502 92.0908 62.2257 90.8739 59.3973C92.6499 59.1342 94.4917 58.9697 96.3335 58.9697ZM116.626 64.8568C113.666 66.5342 110.838 68.7048 108.075 71.4675C105.937 70.2177 103.536 69.2968 100.938 68.7706C102.023 65.7448 103.438 62.7191 105.148 59.9564C109.325 60.9431 113.206 62.6204 116.594 64.8568M124.816 72.6186C121.132 73.1777 117.284 74.3288 113.37 75.9733C111.989 74.2631 110.246 72.7831 108.272 71.5662C111.035 68.8364 113.897 66.6657 116.824 64.9884C119.981 67.0933 122.678 69.6586 124.816 72.5857M129.453 82.4524C125.605 81.8933 121.33 81.7946 116.725 82.2222C116.067 80.0186 114.982 77.9795 113.535 76.1706C117.416 74.4933 121.297 73.3751 124.98 72.8488C127.085 75.7431 128.598 78.9991 129.453 82.4853M141.557 86.8266C142.017 89.0302 142.248 91.2008 142.248 93.2728C142.248 96.1013 141.886 98.864 141.195 101.528C137.84 97.9431 134.19 95.0817 130.111 92.8124C130.309 91.4311 130.44 90.0168 130.44 88.5697C130.44 86.5635 130.177 84.6231 129.749 82.7155C134.19 83.4062 138.136 84.7875 141.557 86.7937M126.428 122.708C129.782 120.275 132.71 117.446 135.143 114.289C137.972 118.203 140.208 122.149 141.787 125.932C138.597 129.78 134.683 133.233 130.177 136.094C129.322 131.26 128.039 126.787 126.428 122.708ZM115.574 128.563C119.455 127.083 123.04 125.142 126.23 122.84C127.842 126.951 129.125 131.358 129.947 136.226C126.132 138.66 121.889 140.699 117.383 142.212C117.054 137.41 116.429 132.871 115.541 128.563M102.385 131.687C106.957 131.227 111.331 130.174 115.377 128.661C116.265 132.97 116.89 137.476 117.218 142.277C112.713 143.757 107.944 144.777 102.977 145.237C102.846 140.699 102.648 136.193 102.385 131.687ZM89.3609 131.49C91.7948 131.819 94.2615 132.016 96.794 132.016C98.6029 132.016 100.379 131.917 102.155 131.753C102.418 136.259 102.583 140.764 102.747 145.303C100.938 145.468 99.1292 145.533 97.2873 145.533C94.3931 145.533 91.5645 145.303 88.7689 144.941C88.8676 140.403 89.032 135.93 89.3609 131.49ZM76.3037 127.839C80.2834 129.549 84.5919 130.766 89.1636 131.424C88.8347 135.831 88.6374 140.304 88.5716 144.843C83.5066 144.119 78.6718 142.771 74.133 140.929C74.5606 136.324 75.2841 132.016 76.3366 127.806M65.9106 121.755C68.9364 124.123 72.3899 126.162 76.1064 127.773C75.0539 131.983 74.3303 136.292 73.9028 140.896C69.4956 139.087 65.4172 136.818 61.7665 134.187C62.819 129.878 64.2003 125.767 65.9106 121.787M65.7132 121.59C63.9701 125.57 62.5887 129.714 61.5363 134.022C57.0961 130.766 53.3138 126.984 50.3867 122.774C52.2614 118.828 54.465 115.276 56.8988 112.085C59.234 115.637 62.2269 118.86 65.7132 121.623M66.2066 102.219C67.7853 104.981 69.8245 107.514 72.2583 109.717C69.7587 113.434 67.6208 117.315 65.8119 121.393C62.3256 118.63 59.3655 115.44 57.0633 111.888C59.8918 108.204 63.0163 105.014 66.2066 102.219ZM66.1079 102.021C62.9176 104.817 59.7602 108.007 56.9317 111.691C54.6623 108.139 53.0178 104.291 52.1298 100.18C55.4846 97.2195 59.1024 94.9173 62.9834 93.0755C63.4767 96.2328 64.5621 99.2586 66.1079 102.021ZM75.7775 88.5697C75.9748 90.4444 76.5011 92.2533 77.2904 93.9306C73.7383 96.0684 69.956 98.6995 66.2724 101.89C64.7594 99.1271 63.707 96.1342 63.2136 92.9768C67.1933 91.1022 71.4032 89.7208 75.8104 88.5697M75.6788 86.8266C75.6788 87.3528 75.6788 87.8462 75.7446 88.3395C71.3374 89.4577 67.0946 90.872 63.1479 92.7137C62.9505 91.4968 62.8518 90.2471 62.8518 88.9973C62.8518 86.2017 63.2465 83.5048 64.0688 80.9724C68.4431 80.4462 72.6859 80.6764 76.6984 81.2026C76.0406 82.9786 75.7117 84.8533 75.7117 86.8266M87.2889 83.1431C88.2098 83.3404 89.0978 83.5377 89.9529 83.7022C89.7227 84.2942 89.5912 84.8862 89.5583 85.544C84.8879 86.3333 80.3492 87.1884 75.9748 88.2737C75.9419 87.7804 75.909 87.3199 75.909 86.7937C75.909 84.8533 76.2708 82.9457 76.8957 81.2026C80.5465 81.696 84.0328 82.4195 87.256 83.1102M91.2028 81.7946C90.7094 82.288 90.3147 82.8471 90.0516 83.4719C89.1636 83.2746 88.2756 83.1102 87.3547 82.9128C84.1315 82.2222 80.6452 81.4657 77.0273 80.9724C77.7838 78.9662 78.9349 77.1244 80.382 75.5128C84.1315 77.3546 87.7493 79.5253 91.2356 81.7946M92.1237 79.2293L92.913 80.5448C92.321 80.8408 91.8277 81.2355 91.3672 81.6631C87.8809 79.4266 84.263 77.2231 80.5136 75.3813C82.1581 73.5724 84.1972 72.0595 86.5324 70.9084C88.6374 73.6382 90.4134 76.5324 92.1237 79.2622M95.4126 79.7555C94.5904 79.8542 93.801 80.0844 93.1104 80.4462L92.2881 79.1306C90.6107 76.4008 88.8347 73.5066 86.6969 70.7768C88.8018 69.7573 91.137 69.0666 93.6037 68.7706C94.4917 72.6515 95.0508 76.4995 95.4126 79.7555ZM97.7149 79.8213C97.2873 79.7226 96.8269 79.6897 96.3664 79.6897H95.6429C95.2811 76.4666 94.722 72.5857 93.8339 68.7377C94.722 68.6391 95.61 68.5733 96.5309 68.5733C97.9451 68.5733 99.3265 68.7048 100.675 68.9351C99.2936 72.7831 98.3727 76.5982 97.7478 79.8213M100.346 80.8408C99.6225 80.3804 98.8332 80.0515 97.9451 79.8542C98.57 76.6311 99.491 72.8159 100.872 69.0008C103.438 69.4942 105.806 70.3822 107.911 71.632C105.312 74.2302 102.813 77.2888 100.346 80.8408ZM101.991 82.3208C101.596 81.8275 101.103 81.3671 100.543 80.9724C103.01 77.4204 105.51 74.3288 108.108 71.7635C110.049 72.9475 111.759 74.3946 113.14 76.1048C109.424 77.7164 105.674 79.7884 101.958 82.3537M103.043 84.5573C102.879 83.8008 102.55 83.1102 102.122 82.4853C105.806 79.92 109.588 77.848 113.305 76.2364C114.752 78.0124 115.837 80.0515 116.495 82.2222C112.351 82.6168 107.878 83.3733 103.076 84.5573M117.12 86.8266C117.12 87.2213 117.12 87.5831 117.087 87.9777C112.844 87.024 108.24 86.4648 103.175 86.2675V85.7742L103.109 84.8204C107.911 83.6364 112.384 82.8799 116.561 82.4853C116.955 83.8666 117.153 85.3137 117.153 86.8266M117.317 88.0106C117.317 87.616 117.35 87.2213 117.35 86.8266C117.35 85.3137 117.153 83.8666 116.758 82.4524C121.395 82.0577 125.638 82.1235 129.486 82.7155C129.947 84.6231 130.177 86.5964 130.177 88.6026C130.177 89.984 130.078 91.3653 129.881 92.7137C126.066 90.6088 121.922 89.096 117.284 88.0106M125.868 103.403C122.645 100.311 119.093 97.4497 115.278 94.8844C116.396 92.8453 117.087 90.6088 117.317 88.2408C121.922 89.2933 126.099 90.8391 129.914 92.944C129.322 96.6275 127.973 100.147 125.901 103.403M126.033 103.534C128.105 100.311 129.486 96.7591 130.078 93.0426C134.124 95.312 137.742 98.1733 141.096 101.758C139.945 106.132 137.873 110.244 135.11 113.894C132.512 110.342 129.453 106.823 126 103.534M120.047 110.375L120.639 109.882C122.711 108.007 124.487 105.935 125.934 103.732C129.388 107.02 132.446 110.54 135.012 114.092C132.611 117.216 129.717 120.044 126.362 122.478C124.619 118.071 122.481 114.059 120.047 110.375ZM111.857 115.572C114.752 114.256 117.449 112.579 119.85 110.54C122.251 114.223 124.388 118.236 126.132 122.643C122.941 124.945 119.356 126.852 115.508 128.365C114.587 123.925 113.338 119.683 111.857 115.604M101.399 118.499C104.984 118.038 108.437 117.084 111.66 115.637C113.14 119.748 114.39 123.958 115.311 128.398C111.265 129.944 106.924 130.996 102.352 131.457C102.122 127.116 101.793 122.807 101.399 118.499ZM90.6436 118.367C92.5512 118.663 94.4917 118.828 96.4651 118.828H96.6953C98.2083 118.828 99.6883 118.696 101.168 118.532C101.563 122.84 101.892 127.181 102.155 131.49C100.412 131.654 98.6358 131.753 96.8269 131.753C94.2944 131.753 91.8277 131.556 89.3938 131.227C89.6898 126.885 90.1174 122.61 90.6436 118.334M80.4478 115.243C83.5066 116.723 86.8942 117.775 90.4134 118.334C89.8872 122.577 89.4596 126.885 89.1636 131.227C84.6248 130.569 80.3163 129.352 76.3695 127.642C77.422 123.432 78.8033 119.354 80.4478 115.243ZM80.2505 115.111C78.5731 119.222 77.2246 123.3 76.1722 127.543C72.4556 125.932 69.068 123.925 66.0093 121.524C67.7853 117.479 69.9231 113.598 72.4227 109.882C74.725 111.954 77.3562 113.697 80.2505 115.111ZM81.0727 99.1928C82.5199 100.607 84.1973 101.791 86.0391 102.778C83.8684 106.955 81.9608 110.934 80.3163 114.947C77.4549 113.532 74.8237 111.789 72.5543 109.717C75.0539 106.034 77.8824 102.548 81.0727 99.1928ZM80.9083 99.0284C77.718 102.35 74.8566 105.869 72.3899 109.553C69.9889 107.349 67.9497 104.85 66.4039 102.087C70.0876 98.8968 73.8699 96.2657 77.422 94.128C78.31 95.9368 79.494 97.5813 80.9412 99.0284M89.9858 87.8462C90.2818 88.5368 90.7094 89.1946 91.2685 89.7537C87.552 92.6151 84.1644 95.6737 81.0727 98.8639C79.6256 97.4168 78.4744 95.8053 77.5864 93.9964C82.4212 91.1022 86.8284 89.0959 89.9858 87.8462ZM102.615 88.1422C102.879 87.6159 103.043 87.0568 103.109 86.4648C108.207 86.6622 112.811 87.2213 117.054 88.1751C116.857 90.5102 116.166 92.7137 115.081 94.7199C111.167 92.1217 106.99 89.8853 102.615 88.1093M111.397 99.4231C108.174 95.9368 104.753 92.8124 101.333 89.8853C101.826 89.4248 102.221 88.8986 102.517 88.3395C106.891 90.1155 111.068 92.352 114.949 94.9502C114.028 96.5946 112.811 98.1075 111.364 99.4559M111.529 99.5875C112.976 98.2391 114.193 96.7262 115.146 95.0488C118.962 97.6142 122.514 100.508 125.737 103.567C124.29 105.771 122.547 107.843 120.475 109.717L119.915 110.178C117.383 106.297 114.522 102.811 111.529 99.5875ZM106.398 103.074C108.24 102.186 109.917 101.068 111.364 99.7519C114.357 102.975 117.186 106.494 119.751 110.342C117.35 112.348 114.686 114.059 111.792 115.341C110.246 111.132 108.437 107.086 106.398 103.041M99.8199 105.047C102.089 104.718 104.227 104.093 106.2 103.172C108.24 107.218 110.049 111.263 111.594 115.44C108.404 116.854 104.951 117.841 101.399 118.301C100.971 113.894 100.478 109.454 99.8199 105.047ZM92.7157 104.948C93.9655 105.146 95.2153 105.277 96.5309 105.277C97.5834 105.277 98.6029 105.212 99.5896 105.08C100.247 109.487 100.741 113.894 101.168 118.334C99.7212 118.499 98.2411 118.63 96.7282 118.63H96.498C94.5246 118.63 92.5841 118.466 90.7094 118.17C91.2685 113.763 91.9592 109.356 92.7486 104.981M92.4855 104.916C91.6961 109.29 91.0054 113.664 90.4463 118.104C86.9271 117.512 83.5723 116.46 80.5136 115.012C82.1252 111.033 84.0328 107.02 86.2364 102.844C88.144 103.797 90.249 104.521 92.4855 104.916ZM106.102 102.942C104.161 103.83 102.023 104.488 99.787 104.817C99.1621 100.443 98.3727 95.8711 97.4847 91.4968L97.2545 91.5626C98.1425 95.9039 98.9318 100.476 99.5567 104.85C98.57 104.981 97.5505 105.047 96.5309 105.047C95.2482 105.047 93.9655 104.916 92.7486 104.718C93.5379 100.377 94.4588 96.0684 95.5113 91.7271L96.3664 91.7928C98.2411 91.7928 99.9185 91.1351 101.168 90.0497C104.589 92.9768 107.976 96.1013 111.233 99.5875C109.785 100.903 108.141 101.988 106.299 102.876C104.293 98.9626 101.925 94.8515 99.5238 90.9048L99.3594 91.0693C101.793 95.016 104.096 99.0613 106.069 102.975M92.8143 90.7075C90.4134 94.7528 88.1111 98.8311 86.1377 102.548C84.2959 101.594 82.6185 100.41 81.2043 98.9955C84.2959 95.8053 87.6836 92.7466 91.4001 89.8853C92.4197 90.8391 93.7681 91.4639 95.2482 91.6942C94.1957 96.0355 93.3077 100.344 92.4855 104.685C90.2818 104.291 88.2098 103.6 86.3022 102.646C88.2756 98.9297 90.545 94.9502 92.9459 90.9048L92.7815 90.7075H92.8143ZM89.7885 85.5111C89.8214 84.8862 89.9529 84.2942 90.1832 83.7679L90.2818 83.5706C90.545 82.9786 90.9396 82.4524 91.4001 81.9591C92.4526 80.9066 93.8997 80.1831 95.5442 79.9857H95.6757H96.3664C96.8269 79.9528 97.2545 79.9857 97.682 80.0515L97.9122 80.1173C99.5238 80.4462 100.905 81.3013 101.826 82.4853L101.958 82.6826C102.615 83.6035 102.977 84.656 102.977 85.8071V86.3004L102.911 86.5306C102.747 87.7804 102.122 88.9315 101.168 89.8195L101.004 89.984C99.8198 91.0364 98.1754 91.6613 96.3993 91.6613H95.5771L95.3469 91.5955C93.8997 91.3982 92.5841 90.7733 91.6303 89.8524L91.4659 89.688C90.9396 89.1617 90.5121 88.5368 90.2161 87.8462L90.1174 87.6488C89.8872 87.0897 89.7885 86.4648 89.7885 85.84V85.6097V85.5111ZM89.5583 85.7742C89.5583 86.4319 89.6898 87.0568 89.9201 87.6488C86.7626 88.8986 82.3554 90.9048 77.4878 93.7991C76.6984 92.1546 76.2051 90.3786 76.0077 88.504C80.3492 87.4186 84.8879 86.5635 89.5583 85.7742ZM149.121 112.381C147.707 117.183 145.241 121.689 141.919 125.734C140.34 121.952 138.103 118.005 135.275 114.124C138.038 110.441 140.11 106.363 141.294 101.988C144.056 104.948 146.655 108.402 149.121 112.381ZM149.286 112.644C149.878 113.598 150.437 114.552 151.029 115.572L151.226 115.473C150.634 114.388 150.009 113.368 149.385 112.381C150.24 109.52 150.7 106.527 150.733 103.501H150.503C150.47 106.428 150.01 109.323 149.22 112.118C146.753 108.139 144.155 104.718 141.36 101.725C142.083 98.9955 142.478 96.1671 142.478 93.2728C142.478 91.2337 142.248 89.1288 141.82 86.9911C143.925 88.2408 145.833 89.7537 147.543 91.4968L147.707 91.3324C145.931 89.5235 143.925 87.9777 141.754 86.6951C140.735 81.9591 138.761 77.1573 135.998 73.0462L135.834 73.1777C138.531 77.1902 140.504 81.8933 141.524 86.5635C138.071 84.5573 134.157 83.2417 129.717 82.5511C128.861 79.0648 127.316 75.7759 125.244 72.8488C128.894 72.3226 132.414 72.3555 135.637 72.9804V72.7502C132.381 72.0924 128.829 72.0924 125.079 72.6186C122.941 69.6586 120.211 67.0604 117.054 64.9226C118.666 64.0346 120.277 63.3111 121.922 62.7191L121.856 62.4888C120.146 63.0808 118.468 63.8373 116.857 64.7582C113.436 62.4888 109.522 60.7786 105.312 59.792C105.773 59.0684 106.266 58.3777 106.76 57.6871L106.595 57.5555C106.069 58.2462 105.543 58.9697 105.082 59.7262C102.352 59.1013 99.5238 58.7724 96.5967 58.7724H96.3664C94.4917 58.7724 92.617 58.9368 90.8081 59.2328C90.4792 58.5093 90.1503 57.8186 89.8214 57.1937L89.624 57.2924C89.9529 57.9173 90.2818 58.608 90.5779 59.2657C86.3022 59.9564 82.2896 61.3377 78.7376 63.3111C77.5535 62.5546 76.3037 61.8968 74.9552 61.3048L74.8566 61.5351C76.1722 62.0942 77.3562 62.752 78.5073 63.4426C74.8566 65.4817 71.6663 68.1457 69.1009 71.2373C66.4697 70.6453 63.8056 70.3164 61.0429 70.3164V70.5466C63.7399 70.5466 66.371 70.8755 68.9693 71.4346C66.6999 74.2302 64.9897 77.3875 63.9043 80.7751C60.2536 81.2026 56.5041 82.1564 52.7218 83.8337C53.4125 81.2026 54.4979 78.0124 55.5503 75.9075L55.1557 76.4337C54.0703 78.6044 53.1494 81.2355 52.4587 83.9653C51.176 84.5573 49.8933 85.2151 48.5777 85.9715L48.6764 86.1688C49.9262 85.4453 51.1431 84.8204 52.36 84.2613C51.6036 87.3528 51.1431 90.576 51.1431 93.3057C51.1431 95.6408 51.4062 97.9102 51.8667 100.147C49.104 102.58 46.5714 105.475 44.2363 108.895C43.8087 106.856 43.6114 104.751 43.6114 102.646H43.3811C43.3811 104.85 43.6114 107.02 44.0718 109.158C43.5785 109.915 43.0851 110.671 42.5918 111.46L42.7891 111.592C43.2167 110.868 43.6772 110.145 44.1376 109.454C45.1572 114.19 47.2292 118.696 50.1235 122.84C48.9724 125.274 47.9857 127.872 47.1306 130.602C45.815 128.299 44.7954 125.899 44.1376 123.465L43.9074 123.531C44.5652 126.03 45.6176 128.497 47.0319 130.898L46.7359 131.819L46.9661 131.884L47.1964 131.161C50.1235 136.094 54.465 140.666 59.7273 144.547C59.53 146.388 59.3655 148.263 59.2998 150.138H59.53C59.6287 148.329 59.7602 146.487 59.9576 144.711C64.003 147.704 68.5746 150.269 73.4423 152.308C73.4752 154.972 73.5739 157.702 73.8041 160.596H74.0343C73.837 157.735 73.7054 155.038 73.7054 152.407C78.4744 154.38 83.5066 155.828 88.6045 156.683C88.6702 159.38 88.736 162.142 88.9005 164.905H89.1307C88.9991 162.142 88.9005 159.412 88.8347 156.716C91.8605 157.209 94.9193 157.439 97.9451 157.439C99.6554 157.439 101.366 157.34 103.043 157.209C103.076 159.939 103.109 162.668 103.142 165.398H103.372C103.372 162.636 103.306 159.906 103.273 157.176C108.141 156.748 112.877 155.762 117.383 154.282C117.284 156.847 117.12 159.314 116.89 162.044L117.12 161.912C117.383 159.149 117.547 156.781 117.646 154.183C122.514 152.572 127.053 150.401 131.164 147.737C131.197 149.546 131.197 151.388 131.164 153.295H131.394C131.46 151.355 131.46 149.447 131.394 147.605C136.558 144.251 140.998 140.172 144.32 135.568C144.385 136.259 144.385 136.916 144.385 137.574H144.616C144.616 136.851 144.616 136.061 144.55 135.305C146.753 132.213 148.464 128.892 149.582 125.372L149.352 125.307C148.266 128.727 146.622 131.95 144.517 134.976C144.254 132.18 143.432 129.155 142.116 125.997C145.438 121.952 147.937 117.446 149.385 112.677" fill="white" style="fill:white;fill-opacity:1;"/>
<path d="M92.7813 165.3C64.8909 162.899 42.789 138.758 42.789 110.276C42.789 98.568 47.4594 88.4711 52.9848 79.0649C64.4304 59.5618 126.724 25.4889 190.694 0C175.795 2.96 146.885 11.9058 131.164 16.8062C104.589 25.0942 79.7899 35.224 58.6747 46.176C55.6818 47.8533 52.919 49.0373 46.5713 52.7867C14.767 71.6978 -4.37478 98.0418 0.854679 119.716C4.83433 136.292 22.5619 150.368 47.3278 158.228C59.8588 161.912 74.1 164.905 89.0977 165.563C90.3475 165.563 91.2355 165.464 92.4853 165.464L92.7485 165.3H92.7813Z" fill="white" style="fill:white;fill-opacity:1;"/>
<path d="M101.136 56.8978C129.026 59.2987 151.227 83.2418 151.227 111.756C151.227 123.465 146.951 133.562 141.458 142.968C130.013 162.471 67.292 196.577 3.35449 222.066C18.2535 219.106 47.1636 210.16 62.8519 205.26C89.4268 196.939 114.226 186.875 135.341 175.857C138.334 174.18 141.096 172.996 147.444 169.246C179.249 150.368 198.39 124.057 193.194 102.35C189.214 85.7742 171.487 71.6978 146.721 63.8373C134.19 60.1538 120.212 57.1938 105.214 56.7005C103.931 56.6676 102.583 56.7005 101.168 56.832V56.9307L101.136 56.8978Z" fill="white" style="fill:white;fill-opacity:1;"/>
</g>
</g>
<defs>
<clipPath id="clip0_612_43">
<rect width="771" height="222" fill="white" style="fill:white;fill-opacity:1;"/>
</clipPath>
</defs>
</svg>
