<svg width="120" height="57" viewBox="0 0 120 57" fill="none" xmlns="http://www.w3.org/2000/svg">
<g clip-path="url(#clip0_33251_280042)">
<path d="M15.1295 28.7054V28.6693C15.1295 20.1677 22.0715 14.9896 32.3059 14.9896C40.4356 14.9896 47.0635 18.2336 48.6519 23.8411H40.8471C39.5944 21.4704 35.9556 20.4275 32.5694 20.4275C27.2771 20.4275 22.9054 23.2024 22.9054 28.6693V28.7054C22.9054 34.2696 27.176 37.1311 32.6741 37.1311C37.5151 37.1311 41.663 35.0851 41.663 31.9422V31.9602H33.0928V27.0382H48.8036V41.8221H43.3597L43.1322 38.607C40.9374 40.8262 36.8653 42.4139 31.8943 42.4139C22.0751 42.4139 15.1367 37.3188 15.1367 28.709L15.1295 28.7054Z" fill="white" style="fill:white;fill-opacity:1;"/>
<path d="M55.9514 15.585H63.406V41.8222H55.9514V15.585Z" fill="white" style="fill:white;fill-opacity:1;"/>
<path d="M69.8138 28.709V28.6729C69.8138 20.045 76.9904 14.9932 87.2934 14.9932C97.5963 14.9932 104.762 20.045 104.762 28.6729V28.709C104.762 33.4036 102.632 37.0481 99.0475 39.372L105.574 45.6651H97.4014L93.2679 41.75C91.4376 42.1902 89.4305 42.4103 87.2934 42.4103C76.9904 42.4103 69.8138 37.3476 69.8138 28.7053V28.709ZM96.9898 28.709V28.6729C96.9898 23.2926 92.6867 20.4275 87.2934 20.4275C81.9 20.4275 77.5861 23.2962 77.5861 28.6729V28.709C77.5861 34.1036 81.8928 36.9723 87.2934 36.9723C92.6939 36.9723 96.9898 34.1036 96.9898 28.709Z" fill="white" style="fill:white;fill-opacity:1;"/>
<path d="M119.098 56.3787H0.9025C0.40432 56.3787 0 55.9746 0 55.4766V0.902117C0 0.404148 0.40432 0 0.9025 0H119.098C119.596 0 120 0.404148 120 0.902117V14.5421C120 15.0401 119.596 15.4442 119.098 15.4442C118.599 15.4442 118.195 15.0401 118.195 14.5421V1.80423H1.805V54.5709H118.195V41.833C118.195 41.335 118.599 40.9309 119.098 40.9309C119.596 40.9309 120 41.335 120 41.833V55.473C120 55.971 119.596 56.3751 119.098 56.3751V56.3787Z" fill="white" style="fill:white;fill-opacity:1;"/>
</g>
<defs>
<clipPath id="clip0_33251_280042">
<rect width="120" height="56.4" fill="white" style="fill:white;fill-opacity:1;"/>
</clipPath>
</defs>
</svg>
