<svg width="28" height="36" viewBox="0 0 28 36" fill="none" xmlns="http://www.w3.org/2000/svg">
<rect opacity="0.34" x="1.02344" y="28.2822" width="14.8819" height="2" rx="1" transform="rotate(22.4273 1.02344 28.2822)" fill="url(#paint0_linear_32435_373896)" style=""/>
<path d="M14 0C21.732 0 28 6.26801 28 14C28 19.445 24.8915 24.1629 20.3524 26.4775C17.5464 27.9084 15 30.4045 15 33.5543V35C15 35.5523 14.5523 36 14 36C13.4477 36 13 35.5523 13 35V33.5543C13 30.4045 10.4536 27.9084 7.6476 26.4775C3.10847 24.1629 0 19.445 0 14C0 6.26801 6.26801 0 14 0Z" fill="url(#paint1_linear_32435_373896)" style=""/>
<mask id="mask0_32435_373896" style="mask-type:alpha" maskUnits="userSpaceOnUse" x="4" y="4" width="20" height="20">
<rect x="4" y="4" width="20" height="20" fill="#D9D9D9" style="fill:#D9D9D9;fill:color(display-p3 0.8510 0.8510 0.8510);fill-opacity:1;"/>
</mask>
<g mask="url(#mask0_32435_373896)">
<path d="M14.0058 22C12.9047 22 11.8681 21.7917 10.8958 21.375C9.92361 20.9583 9.07292 20.3854 8.34375 19.6562C7.61458 18.9271 7.04167 18.0767 6.625 17.105C6.20833 16.1333 6 15.0951 6 13.9904C6 12.8857 6.20833 11.8507 6.625 10.8854C7.04167 9.92014 7.61458 9.07292 8.34375 8.34375C9.07292 7.61458 9.92333 7.04167 10.895 6.625C11.8667 6.20833 12.9049 6 14.0096 6C15.1143 6 16.1493 6.20833 17.1146 6.625C18.0799 7.04167 18.9271 7.61458 19.6562 8.34375C20.3854 9.07292 20.9583 9.92167 21.375 10.89C21.7917 11.8585 22 12.8932 22 13.9942C22 15.0953 21.7917 16.1319 21.375 17.1042C20.9583 18.0764 20.3854 18.9271 19.6562 19.6562C18.9271 20.3854 18.0783 20.9583 17.11 21.375C16.1415 21.7917 15.1068 22 14.0058 22ZM14 20.5C15.8056 20.5 17.3403 19.8681 18.6042 18.6042C19.8681 17.3403 20.5 15.8056 20.5 14C20.5 12.1944 19.8681 10.6597 18.6042 9.39583C17.3403 8.13194 15.8056 7.5 14 7.5C12.1944 7.5 10.6597 8.13194 9.39583 9.39583C8.13194 10.6597 7.5 12.1944 7.5 14C7.5 15.8056 8.13194 17.3403 9.39583 18.6042C10.6597 19.8681 12.1944 20.5 14 20.5ZM14 19C12.6111 19 11.4306 18.5139 10.4583 17.5417C9.48611 16.5694 9 15.3889 9 14C9 12.6111 9.48611 11.4306 10.4583 10.4583C11.4306 9.48611 12.6111 9 14 9C15.3889 9 16.5694 9.48611 17.5417 10.4583C18.5139 11.4306 19 12.6111 19 14C19 15.3889 18.5139 16.5694 17.5417 17.5417C16.5694 18.5139 15.3889 19 14 19ZM14 17.5C14.9722 17.5 15.7986 17.1597 16.4792 16.4792C17.1597 15.7986 17.5 14.9722 17.5 14C17.5 13.0278 17.1597 12.2014 16.4792 11.5208C15.7986 10.8403 14.9722 10.5 14 10.5C13.0278 10.5 12.2014 10.8403 11.5208 11.5208C10.8403 12.2014 10.5 13.0278 10.5 14C10.5 14.9722 10.8403 15.7986 11.5208 16.4792C12.2014 17.1597 13.0278 17.5 14 17.5ZM13.9956 15.5C13.5819 15.5 13.2292 15.3527 12.9375 15.0581C12.6458 14.7635 12.5 14.4094 12.5 13.9956C12.5 13.5819 12.6473 13.2292 12.9419 12.9375C13.2365 12.6458 13.5906 12.5 14.0044 12.5C14.4181 12.5 14.7708 12.6473 15.0625 12.9419C15.3542 13.2365 15.5 13.5906 15.5 14.0044C15.5 14.4181 15.3527 14.7708 15.0581 15.0625C14.7635 15.3542 14.4094 15.5 13.9956 15.5Z" fill="white" style="fill:white;fill-opacity:1;"/>
</g>
<defs>
<linearGradient id="paint0_linear_32435_373896" x1="16.0629" y1="29.3509" x2="1.18122" y2="29.2936" gradientUnits="userSpaceOnUse">
<stop style="stop-color:black;stop-opacity:1;"/>
<stop offset="1" stop-opacity="0" style="stop-color:none;stop-opacity:0;"/>
</linearGradient>
<linearGradient id="paint1_linear_32435_373896" x1="0" y1="0" x2="34.8923" y2="27.1385" gradientUnits="userSpaceOnUse">
<stop stop-color="#DA4453" style="stop-color:#DA4453;stop-color:color(display-p3 0.8549 0.2667 0.3255);stop-opacity:1;"/>
<stop offset="1" stop-color="#89216B" style="stop-color:#89216B;stop-color:color(display-p3 0.5373 0.1294 0.4196);stop-opacity:1;"/>
</linearGradient>
</defs>
</svg>
