<svg width="120" height="57" viewBox="0 0 120 57" fill="none" xmlns="http://www.w3.org/2000/svg">
<g clip-path="url(#clip0_25068_259855)">
<path d="M15.3115 28.9977V28.9616C15.3115 20.4565 22.2536 15.2761 32.4879 15.2761C40.6176 15.2761 47.2456 18.5215 48.834 24.1315H41.0292C39.7765 21.7597 36.1376 20.7164 32.7514 20.7164C27.4592 20.7164 23.0875 23.4925 23.0875 28.9616V28.9977C23.0875 34.5644 27.3581 37.4271 32.8561 37.4271C37.6971 37.4271 41.845 35.3802 41.845 32.2359V32.254H33.2749V27.3299H48.9856V42.1201H43.5417L43.3143 38.9036C41.1194 41.1237 37.0473 42.7121 32.0764 42.7121C22.2572 42.7121 15.3187 37.6148 15.3187 29.0013L15.3115 28.9977Z" fill="white" style="fill:white;fill-opacity:1;"/>
<path d="M56.1334 15.8718H63.588V42.1201H56.1334V15.8718Z" fill="white" style="fill:white;fill-opacity:1;"/>
<path d="M80.9702 28.9797L68.6059 15.8718H78.0244L85.7029 23.9438L93.533 15.8718H102.244L89.9158 28.6151L102.674 42.1165H93.2478L85.1758 33.6547L76.9378 42.1165H68.2305L80.963 28.9797H80.9702Z" fill="white" style="fill:white;fill-opacity:1;"/>
<path d="M119.28 56.6828H1.08451C0.586327 56.6828 0.182007 56.2785 0.182007 55.7803V1.18265C0.182007 0.684471 0.586327 0.280151 1.08451 0.280151H119.28C119.778 0.280151 120.182 0.684471 120.182 1.18265V14.8285C120.182 15.3266 119.778 15.731 119.28 15.731C118.781 15.731 118.377 15.3266 118.377 14.8285V2.08515H1.98701V54.8742H118.377V42.1309C118.377 41.6327 118.781 41.2284 119.28 41.2284C119.778 41.2284 120.182 41.6327 120.182 42.1309V55.7767C120.182 56.2748 119.778 56.6792 119.28 56.6792V56.6828Z" fill="white" style="fill:white;fill-opacity:1;"/>
</g>
<defs>
<clipPath id="clip0_25068_259855">
<rect width="120" height="56.399" fill="white" style="fill:white;fill-opacity:1;"/>
</clipPath>
</defs>
</svg>
